#!OML:ASF H:\Male1\Project 1\Capture day 1\Session 1\Male1.ASF
:FULLY-SPECIFIED
:DEGREES
439
root 20.558 15.2091 -2.08162 177.348 122.628 -177.072
lowerback 4.68745 0.879872 0.989062
upperback 4.6632 1.27277 -0.176708
thorax 2.19323 0.69804 -0.768021
lowerneck -6.38264 0.147407 3.69943
upperneck 10.3312 -0.339469 1.75932
head 4.57217 0.0947647 -0.0828261
rclavicle 2.15184e-014 -5.1684e-015
rhumerus -33.8475 3.27375 -89.4723
rradius 29.4265
rwrist -15.5414
rhand -14.8104 3.91503
rfingers 7.12502
rthumb 11.3476 -25.758
lclavicle 2.15184e-014 -5.1684e-015
lhumerus -28.3061 14.9905 81.1909
lradius 24.9436
lwrist -7.53762
lhand -16.8297 13.0124
lfingers 7.12502
lthumb 9.39967 42.7828
rfemur -7.06409 7.47778 31.6755
rtibia 24.5447
rfoot -34.834 -30.5948
rtoes 15.8147
lfemur -11.1755 11.1703 -20.8299
ltibia 66.9413
lfoot -6.00389 12.659
ltoes -13.3237
440
root 20.6707 15.195 -2.05107 177.325 124.625 -177.042
lowerback 4.84058 0.861215 0.976988
upperback 4.59534 1.24542 -0.151269
thorax 2.03618 0.681073 -0.738145
lowerneck -5.68356 0.26921 3.47321
upperneck 9.84955 -0.128813 1.95872
head 4.25681 0.184829 0.0351464
rclavicle -1.06847e-014 3.57812e-015
rhumerus -33.6644 3.90547 -89.6715
rradius 29.528
rwrist -15.8616
rhand -15.405 2.22924
rfingers 7.12502
rthumb 10.7741 -27.4744
lclavicle -1.06847e-014 3.57812e-015
lhumerus -29.871 16.8342 80.116
lradius 24.9122
lwrist -7.60833
lhand -18.3478 12.9013
lfingers 7.12502
lthumb 7.93466 42.7324
rfemur -6.67604 7.966 31.7199
rtibia 24.9243
rfoot -33.8499 -30.0683
rtoes 13.6559
lfemur -12.4442 9.26607 -20.9628
ltibia 68.0047
lfoot -6.31883 13.1094
ltoes -14.7071
441
root 20.7849 15.1763 -2.02242 177.079 126.747 -177.255
lowerback 4.88036 1.05294 1.34251
upperback 4.71952 1.51434 -0.293257
thorax 2.16244 0.829889 -1.0953
lowerneck -5.72861 0.221044 3.46019
upperneck 9.81765 -0.244498 2.46716
head 4.25472 0.152324 0.201916
rclavicle -6.94752e-014 9.93923e-015
rhumerus -33.2083 3.61839 -89.8526
rradius 29.8183
rwrist -16.1739
rhand -15.9813 2.30145
rfingers 7.12502
rthumb 10.2182 -27.4304
lclavicle -6.94752e-014 9.93923e-015
lhumerus -30.7483 17.7288 79.2279
lradius 24.5347
lwrist -7.53969
lhand -19.8275 12.9841
lfingers 7.12502
lthumb 6.50637 42.8642
rfemur -6.28078 8.57392 31.9039
rtibia 25.3853
rfoot -33.025 -29.4
rtoes 11.6916
lfemur -13.565 7.16749 -20.9548
ltibia 68.5237
lfoot -6.19886 13.6568
ltoes -13.8961
442
root 20.8998 15.1607 -1.99018 176.8 128.921 -177.432
lowerback 5.08379 1.20653 1.60054
upperback 4.76926 1.72981 -0.350794
thorax 2.11734 0.945859 -1.30909
lowerneck -5.64733 0.182481 3.47273
upperneck 9.90321 -0.309405 2.60114
head 4.26942 0.128899 0.241547
rclavicle -1.22774e-013 1.88845e-014
rhumerus -32.9265 2.96259 -89.7511
rradius 30.1615
rwrist -16.2037
rhand -15.9694 2.95715
rfingers 7.12502
rthumb 10.2297 -26.7741
lclavicle -1.22774e-013 1.88845e-014
lhumerus -31.8598 18.6066 78.455
lradius 24.1637
lwrist -7.33101
lhand -20.583 13.8946
lfingers 7.12502
lthumb 5.77698 43.7958
rfemur -5.77725 9.01124 32.0447
rtibia 25.7717
rfoot -31.8182 -28.7488
rtoes 8.5653
lfemur -14.5191 4.8759 -20.9377
ltibia 68.5666
lfoot -6.62982 14.3242
ltoes -17.8621
443
root 21.0094 15.1505 -1.95455 176.563 131.128 -177.633
lowerback 5.31977 1.30897 1.73031
upperback 4.77429 1.8723 -0.324122
thorax 1.99992 1.01874 -1.36495
lowerneck -5.68539 0.131669 3.44016
upperneck 10.2376 -0.38424 2.57876
head 4.39787 0.0976877 0.237528
rclavicle 3.54831e-014 -1.98785e-016
rhumerus -32.6226 1.80129 -89.4022
rradius 30.5863
rwrist -15.986
rhand -15.4734 3.06904
rfingers 7.12502
rthumb 10.7081 -26.6381
lclavicle 3.54831e-014 -1.98785e-016
lhumerus -33.0279 19.3572 77.8231
lradius 23.8203
lwrist -7.12447
lhand -20.3331 15.3
lfingers 7.12502
lthumb 6.0182 45.1945
rfemur -5.32809 9.32125 32.1819
rtibia 26.107
rfoot -30.9977 -27.7216
rtoes 6.48469
lfemur -15.524 2.49 -20.8314
ltibia 68.1926
lfoot -7.77022 15.3791
ltoes -16.3633
